<svg xmlns="http://www.w3.org/2000/svg" width="16" height="16" viewBox="0 0 128 128" fill="none">
  <defs>
    <linearGradient id="bg" x1="0" y1="0" x2="128" y2="128" gradientUnits="userSpaceOnUse">
      <stop offset="0%" stop-color="#6366f1"/>
      <stop offset="100%" stop-color="#4f46e5"/>
    </linearGradient>
  </defs>
  <rect width="128" height="128" rx="28" fill="url(#bg)"/>
  <rect x="62" y="36" width="4" height="60" rx="2" fill="#4338ca" opacity="0.3"/>
  <path d="M28 42C28 39 30 37 33 37L60 37C62 37 62 37 62 39L62 92C62 94 60 94 58 93C52 90 42 88 33 88C30 88 28 86 28 84Z" fill="white" opacity="0.92"/>
  <path d="M66 39C66 37 66 37 68 37L95 37C98 37 100 39 100 42L100 84C100 86 98 88 95 88C86 88 76 90 70 93C68 94 66 94 66 92Z" fill="white"/>
  
  <g transform="translate(94, 28)">
    <path d="M0-10C1-3 3-1 10 0 3 1 1 3 0 10-1 3-3 1-10 0-3-1-1-3 0-10Z" fill="#fbbf24"/>
    
  </g>
</svg>