<svg xmlns="http://www.w3.org/2000/svg" viewBox="0 0 32 32" fill="none">
  <defs>
    <linearGradient id="bg" x1="0" y1="0" x2="32" y2="32" gradientUnits="userSpaceOnUse">
      <stop offset="0%" stop-color="#6366f1"/>
      <stop offset="100%" stop-color="#4f46e5"/>
    </linearGradient>
  </defs>
  <rect width="32" height="32" rx="7" fill="url(#bg)"/>
  <!-- Simplified book at small size -->
  <path d="M7 10.5C7 9.5 7.8 8.5 9 8.5L15 8.5C15.8 8.5 16 8.8 16 9.5L16 23C16 23.5 15.5 23.5 15 23.2C13.5 22.2 11.5 21.5 9 21.5C7.8 21.5 7 21 7 20Z" fill="white" opacity="0.9"/>
  <path d="M16 9.5C16 8.8 16.2 8.5 17 8.5L23 8.5C24.2 8.5 25 9.5 25 10.5L25 20C25 21 24.2 21.5 23 21.5C20.5 21.5 18.5 22.2 17 23.2C16.5 23.5 16 23.5 16 23Z" fill="white"/>
  <!-- Sparkle -->
  <path d="M24 6 C24.2 7.5 25 8.3 26.5 8.5 C25 8.7 24.2 9.5 24 11 C23.8 9.5 23 8.7 21.5 8.5 C23 8.3 23.8 7.5 24 6Z" fill="#fbbf24"/>
</svg>
